<mxfile host="app.diagrams.net" modified="2023-10-01T19:19:58.311Z" agent="Mozilla/5.0 (X11; Linux x86_64) AppleWebKit/537.36 (KHTML, like Gecko) Chrome/117.0.0.0 Safari/537.36" version="22.0.0" etag="ik9F1FsC3ilMgwXbuulP" type="github">
  <diagram name="Page-1" id="jQ-9usXzGomJ2In_nvOY">
    <mxGraphModel>
      <root>
        <mxCell id="0" />
        <mxCell id="1" parent="0" />
      </root>
    </mxGraphModel>
  </diagram>
</mxfile>
